<svg version="1.2" xmlns="http://www.w3.org/2000/svg" viewBox="0 0 491 69" width="491" height="69">
	<title>header-svg</title>
	<style>
		.s0 { fill: #185ca4 } 
	</style>
	<path id="Layer" class="s0" d="m464.5 13.3h-187.2l3.8-6.7 3.9-6.6h-79.5l3.9 6.6 3.8 6.7h-213.2v3.4h51l1.6 2.9 1.7 2.9 2.6 4.7 2.5 4.6h-32.1l3.1 5.5 3.2 5.5 3.2 5.5 3.2 5.5h175.8v-3.4h-10.4l-1.9-3.2-1.8-3.1-2.1-3.6-2-3.5h-4l2.4 4 2.3 4 1.6 2.7 1.5 2.7h-28.9l-1.8-3.1-1.8-3.2-2.1-3.6-2-3.5h-4l2.3 4 2.4 4 1.5 2.7 1.6 2.7h-28.9l-1.8-3.2-1.8-3.1-2.1-3.6-2.1-3.5h-3.9l2.3 4 2.3 4 1.6 2.7 1.6 2.7h-28.9l-1.8-3.1-1.9-3.2-2-3.5-2.1-3.6h-3.9l2.3 4 2.3 4 1.6 2.7 1.6 2.7h-61l-2.3-3.8-2.2-3.8-2.1-3.8-2.2-3.8h32.1l-2.6-4.6-2.6-4.6-2.6-4.6-2.6-4.7h28.6l1.8 3.2 1.8 3.1 2.1 3.6 2.1 3.5h3.9l-2.3-4-2.3-4-1.6-2.7-1.6-2.7h28.9l1.8 3.1 1.9 3.2 2 3.5 2.1 3.6h3.9l-2.3-4-2.3-4-1.6-2.7-1.6-2.7h28.9l1.9 3.1 1.8 3.2 2 3.6 2.1 3.5h3.9l-2.3-4-2.3-4-1.6-2.7-1.5-2.7h28.8l1.9 3.1 1.8 3.2 2 3.6 2.1 3.5h3.9l-2.3-4-2.3-4-1.5-2.7-1.6-2.7h28.9l5.1 8.9 5.1 8.8 4.6 8 4.6 8h-18.4v3.4h20.8l4.3 7.5 4.3 7.5 4.4-7.5 4.3-7.5h20.8v-3.4h-18.5l4.7-8 4.6-8 5.1-8.9 5.1-8.8h28.9l-1.6 2.7-1.6 2.7-2.3 4-2.3 4h3.9l2.1-3.6 2.1-3.5 1.8-3.2 1.9-3.1h28.8l-1.5 2.7-1.6 2.7-2.3 4-2.3 4h3.9l2.1-3.5 2-3.6 1.8-3.2 1.9-3.1h28.9l-1.6 2.7-1.6 2.7-2.3 4-2.3 4h3.9l2.1-3.5 2-3.6 1.9-3.2 1.8-3.1h28.9l-1.6 2.7-1.6 2.7-2.3 4-2.3 4h3.9l2.1-3.5 2.1-3.6 1.8-3.2 1.8-3.1h28.6l-2.6 4.6-2.6 4.7-2.6 4.6-2.6 4.7h32.1l-2.2 3.7-2.1 3.8-2.2 3.8-2.2 3.8h-61l1.6-2.7 1.5-2.7 2.3-4 2.3-4h-3.9l-2.1 3.6-2 3.5-1.9 3.2-1.8 3.1h-28.9l1.6-2.7 1.6-2.7 2.3-4 2.3-4h-3.9l-2.1 3.6-2.1 3.5-1.8 3.2-1.8 3.1h-28.9l1.6-2.7 1.5-2.7 2.3-4 2.3-4h-3.9l-2.1 3.6-2 3.5-1.8 3.1-1.8 3.2h-28.9l1.6-2.7 1.5-2.7 2.3-4 2.3-4h-3.9l-2.1 3.6-2 3.5-1.8 3.1-1.8 3.2h-10.4v3.4h175.7l3.2-5.5 3.2-5.5 3.2-5.5 3.1-5.5h-32.2l2.6-4.6 2.6-4.7 1.6-2.9 1.6-2.9h51v-3.4h-26z"/>
</svg>